<svg width="24" height="24" viewBox="0 0 24 24" fill="none" xmlns="http://www.w3.org/2000/svg">
<path d="M5.25 12.75H20.25C20.4489 12.75 20.6397 12.671 20.7803 12.5303C20.921 12.3897 21 12.1989 21 12C21 11.8011 20.921 11.6103 20.7803 11.4697C20.6397 11.329 20.4489 11.25 20.25 11.25H5.25C5.05109 11.25 4.86032 11.329 4.71967 11.4697C4.57902 11.6103 4.5 11.8011 4.5 12C4.5 12.1989 4.57902 12.3897 4.71967 12.5303C4.86032 12.671 5.05109 12.75 5.25 12.75Z" fill="black"/>
<path d="M5.56062 12L11.7811 5.78103C11.9219 5.6402 12.0011 5.4492 12.0011 5.25003C12.0011 5.05087 11.9219 4.85986 11.7811 4.71903C11.6403 4.5782 11.4493 4.49909 11.2501 4.49909C11.051 4.49909 10.8599 4.5782 10.7191 4.71903L3.96912 11.469C3.89927 11.5387 3.84386 11.6215 3.80605 11.7126C3.76824 11.8037 3.74878 11.9014 3.74878 12C3.74878 12.0987 3.76824 12.1964 3.80605 12.2875C3.84386 12.3786 3.89927 12.4614 3.96912 12.531L10.7191 19.281C10.8599 19.4219 11.051 19.501 11.2501 19.501C11.4493 19.501 11.6403 19.4219 11.7811 19.281C11.9219 19.1402 12.0011 18.9492 12.0011 18.75C12.0011 18.5509 11.9219 18.3599 11.7811 18.219L5.56062 12Z" fill="black"/>
</svg>
