<svg width="85" height="84" viewBox="0 0 85 84" fill="none" xmlns="http://www.w3.org/2000/svg">
<path fill-rule="evenodd" clip-rule="evenodd" d="M54.6733 74.8247C68.002 69.88 77.5 57.0493 77.5 42C77.5 22.67 61.8298 7 42.5 7C23.17 7 7.5 22.67 7.5 42C7.5 61.3298 23.17 77 42.5 77C46.3913 77 50.1342 76.3651 53.6307 75.1929C53.7409 75.1726 53.8516 75.1468 53.9615 75.1153C54.2138 75.0432 54.4518 74.9451 54.6733 74.8247ZM42.5 14C36.6504 14 31.2201 15.7936 26.7286 18.861C26.7427 18.9887 26.75 19.1185 26.75 19.25V31.571C26.75 33.1097 27.7549 34.4679 29.2262 34.918L33.7433 36.2995L33.1318 32.6307C32.2184 27.15 35.7328 21.9065 41.1494 20.6685L42.5543 20.3474C43.8979 20.0402 44.936 18.9732 45.2062 17.6218L45.8901 14.2031C44.7789 14.069 43.6473 14 42.5 14ZM19.75 31.571V25.6735C16.4459 30.2694 14.5 35.9075 14.5 42C14.5 57.4641 27.036 70 42.5 70C44.6182 70 46.6818 69.7648 48.6653 69.3189L46.6331 62.2055C46.4697 61.6336 46.1631 61.1128 45.7424 60.6921L41.4076 56.3574C39.1949 54.145 39.3969 50.5001 41.8402 48.5457L47.3149 44.1658C49.4468 42.4603 52.3763 42.1498 54.8182 43.3709L59.9643 45.9441C63.1045 47.5142 65.2521 50.5498 65.6875 54.0333L66.0732 57.1165C68.875 52.7562 70.5 47.5678 70.5 42C70.5 30.1301 63.1139 19.9853 52.6871 15.9109L52.0704 18.9946C51.2594 23.049 48.1448 26.25 44.1138 27.1714L42.709 27.4925C40.9037 27.9052 39.7322 29.653 40.0367 31.4799L40.6481 35.1487C41.5028 40.2766 36.6669 44.5141 31.6958 42.9937L27.1787 41.6119C22.7646 40.2616 19.75 36.1869 19.75 31.571ZM59.874 63.9593C58.4436 65.0926 56.8997 66.0891 55.2627 66.9287L53.3636 60.2826C52.8733 58.5669 51.9542 57.0042 50.6921 55.7424L47.7398 52.7902L51.6879 49.6321L56.8339 52.2049C57.8807 52.7285 58.5965 53.7404 58.7417 54.9014L59.874 63.9593Z" fill="#5E3EEB"/>
</svg>
