<svg width="36" height="37" viewBox="0 0 36 37" fill="none" xmlns="http://www.w3.org/2000/svg">
<rect width="36" height="37" rx="18" fill="#F4FAF0"/>
<path d="M8 13.5C8 12.837 8.26339 12.2011 8.73223 11.7322C9.20107 11.2634 9.83696 11 10.5 11H25.5C26.163 11 26.7989 11.2634 27.2678 11.7322C27.7366 12.2011 28 12.837 28 13.5V14.75H8V13.5ZM8 17.25V23.5C8 24.163 8.26339 24.7989 8.73223 25.2678C9.20107 25.7366 9.83696 26 10.5 26H25.5C26.163 26 26.7989 25.7366 27.2678 25.2678C27.7366 24.7989 28 24.163 28 23.5V17.25H8ZM11.75 19.75H13C13.3315 19.75 13.6495 19.8817 13.8839 20.1161C14.1183 20.3505 14.25 20.6685 14.25 21V22.25C14.25 22.5815 14.1183 22.8995 13.8839 23.1339C13.6495 23.3683 13.3315 23.5 13 23.5H11.75C11.4185 23.5 11.1005 23.3683 10.8661 23.1339C10.6317 22.8995 10.5 22.5815 10.5 22.25V21C10.5 20.6685 10.6317 20.3505 10.8661 20.1161C11.1005 19.8817 11.4185 19.75 11.75 19.75Z" fill="#6CB73B"/>
</svg>
