<svg width="17" height="16" viewBox="0 0 17 16" fill="none" xmlns="http://www.w3.org/2000/svg">
<path d="M7.78983 10.7901C7.32219 11.0669 6.78431 11.2021 6.24139 11.1793C5.83776 11.1843 5.43733 11.1071 5.06452 10.9523C4.71562 10.8061 4.40361 10.5841 4.15113 10.3024C3.8911 10.0086 3.69221 9.66591 3.56608 9.2944C3.42507 8.87065 3.35611 8.42626 3.36205 7.97971C3.3567 7.53806 3.42567 7.09866 3.56608 6.67989C3.691 6.30985 3.89008 5.96917 4.15113 5.67867C4.40505 5.40024 4.7168 5.18072 5.06452 5.03552C5.43743 4.88119 5.83785 4.80442 6.24139 4.80987C6.59086 4.80217 6.93907 4.85427 7.27098 4.9639C7.5308 5.05074 7.7749 5.17895 7.99386 5.34358C8.17616 5.48228 8.33415 5.65031 8.46136 5.84081C8.56455 5.9951 8.65277 6.15888 8.72484 6.32994H10.9597C10.9056 5.85481 10.7514 5.39657 10.507 4.98552C10.2459 4.53797 9.90633 4.14113 9.50446 3.81406C9.06467 3.45714 8.56885 3.17544 8.03709 2.98039C7.46252 2.76777 6.85402 2.66154 6.24139 2.66692C5.53874 2.66004 4.84137 2.78896 4.18761 3.0466C3.57765 3.28984 3.02535 3.65804 2.56621 4.12753C2.10387 4.60534 1.74346 5.17215 1.5069 5.79352C1.24632 6.48924 1.11757 7.2274 1.12722 7.97025C1.11754 8.72279 1.24623 9.4707 1.5069 10.1767C1.74113 10.8077 2.10158 11.3842 2.56621 11.8711C3.0242 12.3419 3.57682 12.7104 4.18761 12.952C4.8411 13.2107 5.53859 13.3401 6.24139 13.333C6.85628 13.3395 7.4673 13.2351 8.0452 13.025C8.56739 12.8383 9.054 12.5642 9.48419 12.2143C9.88453 11.8839 10.2235 11.4855 10.4854 11.0374C10.7351 10.6192 10.8965 10.1543 10.9597 9.67138H8.75321C8.54356 10.1274 8.20968 10.5151 7.78983 10.7901V10.7901Z" fill="#303030"/>
<path d="M11.5903 4.55878H12.7309V3.41682H13.7364V4.55878H14.877V5.56424H13.7364V6.70485H12.7309V5.56154H11.5903V4.55878Z" fill="#303030"/>
<path d="M13.4822 8.50128C13.4669 8.54874 13.4542 8.59702 13.4443 8.64588C13.4633 8.55399 13.4768 8.50263 13.4768 8.50263L13.4822 8.50128Z" fill="#303030"/>
</svg>
