<svg width="17" height="13" viewBox="0 0 17 13" fill="none" xmlns="http://www.w3.org/2000/svg">
<path d="M2.30224 6.56806L0.0946042 6.56806L3.03812 9.51157L5.98163 6.56806L3.77399 6.56806C3.77399 4.1323 5.7535 2.15279 8.18926 2.15279C8.9325 2.15279 9.63894 2.33676 10.2497 2.6679L11.3241 1.59352C10.419 1.01954 9.34459 0.681033 8.18926 0.681033C4.93668 0.681033 2.30224 3.31548 2.30224 6.56806ZM12.6045 6.56806C12.6045 9.00381 10.625 10.9833 8.18926 10.9833C7.44602 10.9833 6.73958 10.7994 6.1288 10.4682L5.05442 11.5426C5.95955 12.1166 7.03393 12.4551 8.18926 12.4551C11.4418 12.4551 14.0763 9.82063 14.0763 6.56806L16.2839 6.56805L13.3404 3.62454L10.3969 6.56806L12.6045 6.56806Z" fill="#D9D9D9"/>
</svg>
