<svg width="85" height="84" viewBox="0 0 85 84" fill="none" xmlns="http://www.w3.org/2000/svg">
<path d="M7.50011 42.2832C7.47824 39.2618 10.6861 37.5325 13.1621 38.8682L13.4948 39.0695L22.8673 45.3845C26.2717 47.6784 24.1892 52.8854 20.2996 52.408L19.8909 52.338L16.1691 51.5214C19.1815 59.8388 26.0753 66.5938 35.2603 69.055C48.669 72.6478 62.4198 65.8707 67.9834 53.6382C68.7838 51.8788 70.859 51.1011 72.6184 51.9012C74.3782 52.7016 75.1556 54.7768 74.3555 56.5362C67.3982 71.8326 50.217 80.3096 33.4486 75.8167C19.4352 72.0615 9.70513 60.3169 7.82979 46.8097C7.62294 45.3198 7.5115 43.8081 7.50011 42.2832ZM42.5002 21C44.4333 21 46.0002 22.567 46.0002 24.5V28H53.0002C54.9333 28 56.5002 29.567 56.5002 31.5C56.5002 33.433 54.9333 35 53.0002 35H46.0002V38.5H49.5002C54.3327 38.5 58.2502 42.4176 58.2502 47.25C58.2502 52.0825 54.3327 56 49.5002 56H46.0002V59.5C46.0002 61.4331 44.4333 63 42.5002 63C40.5672 63 39.0002 61.4331 39.0002 59.5V56H32.0002C30.0673 56 28.5002 54.4331 28.5002 52.5C28.5002 50.567 30.0673 49 32.0002 49H39.0002V45.5H35.5002C30.6677 45.5 26.7502 41.5825 26.7502 36.75C26.7502 31.9175 30.6677 28 35.5002 28H39.0002V24.5C39.0002 22.567 40.5672 21 42.5002 21ZM49.5002 45.5H46.0002V49H49.5002C50.4666 49 51.2502 48.2164 51.2502 47.25C51.2502 46.2837 50.4666 45.5 49.5002 45.5ZM10.6599 27.4817C17.6171 12.1855 34.7984 3.7084 51.5666 8.20146C65.5803 11.9564 75.3103 23.701 77.1856 37.2082C77.3924 38.6981 77.5037 40.2098 77.5152 41.7347C77.537 44.7561 74.3293 46.4854 71.8532 45.1497L71.5205 44.9484L62.1475 38.6334C58.7432 36.3395 60.8256 31.1326 64.7149 31.6098L65.1235 31.6797L68.8458 32.496C65.8333 24.1788 58.9397 17.424 49.755 14.963C36.3465 11.3701 22.5955 18.1473 17.0318 30.3798C16.2315 32.1394 14.1563 32.917 12.3968 32.1167C10.6372 31.3164 9.85962 29.2412 10.6599 27.4817ZM39.0002 35H35.5002C34.5337 35 33.7502 35.7837 33.7502 36.75C33.7502 37.7164 34.5337 38.5 35.5002 38.5H39.0002V35Z" fill="#5E3EEB"/>
</svg>
