<svg width="14" height="14" viewBox="0 0 14 14" fill="none" xmlns="http://www.w3.org/2000/svg">
<path d="M13.6519 0.483C13.5774 0.408864 13.4833 0.357535 13.3806 0.335048C13.278 0.312561 13.171 0.319852 13.0724 0.356061L0.930394 4.77133C0.825679 4.81105 0.735526 4.88168 0.671908 4.97385C0.608291 5.06602 0.574219 5.17537 0.574219 5.28736C0.574219 5.39936 0.608291 5.5087 0.671908 5.60087C0.735526 5.69304 0.825679 5.76368 0.930394 5.8034L5.67129 7.69644L9.17039 4.18631L9.94858 4.9645L6.43292 8.48015L8.33148 13.221C8.37238 13.3237 8.44317 13.4118 8.53469 13.4738C8.6262 13.5358 8.73422 13.5689 8.84476 13.5687C8.95629 13.5665 9.06451 13.5304 9.15516 13.4654C9.2458 13.4004 9.31461 13.3094 9.35252 13.2045L13.7678 1.0625C13.8054 0.964859 13.8145 0.858536 13.7939 0.755932C13.7734 0.653329 13.7241 0.558673 13.6519 0.483Z" fill="#D9D9D9"/>
</svg>

