<svg width="16" height="17" viewBox="0 0 16 17" fill="none" xmlns="http://www.w3.org/2000/svg">
<path d="M12.6743 5.55688L10.9438 3.82635C10.7179 3.6142 10.4219 3.49248 10.1122 3.48432C9.80241 3.47617 9.50046 3.58217 9.26376 3.78214L3.57955 9.46635C3.3754 9.67223 3.24829 9.94206 3.21955 10.2306L2.94797 12.8642C2.93946 12.9568 2.95146 13.05 2.98312 13.1373C3.01478 13.2247 3.06532 13.3039 3.13112 13.3695C3.19014 13.428 3.26013 13.4744 3.33708 13.5058C3.41403 13.5372 3.49643 13.5532 3.57955 13.5527H3.63639L6.27007 13.3127C6.55858 13.2839 6.82841 13.1568 7.03428 12.9527L12.7185 7.26846C12.9391 7.03539 13.0583 6.72436 13.0501 6.40353C13.0418 6.08271 12.9066 5.77825 12.6743 5.55688V5.55688ZM10.5269 7.66635L8.83428 5.97372L10.0659 4.71056L11.7901 6.43478L10.5269 7.66635Z" fill="black"/>
</svg>
