<svg width="36" height="36" viewBox="0 0 36 36" fill="none" xmlns="http://www.w3.org/2000/svg">
<rect width="36" height="36" rx="18" fill="#EFECFD"/>
<path d="M14.6581 23V15.224C14.6581 13.8907 15.0634 12.8773 15.8741 12.184C16.6954 11.4907 17.8154 11.144 19.2341 11.144C19.4794 11.144 19.7674 11.1547 20.0981 11.176C20.4287 11.1867 20.7541 11.208 21.0741 11.24C21.4047 11.2613 21.6714 11.2827 21.8741 11.304V13.384C21.6714 13.3627 21.3994 13.3413 21.0581 13.32C20.7274 13.288 20.3914 13.2667 20.0501 13.256C19.7194 13.2347 19.4474 13.224 19.2341 13.224C18.7007 13.224 18.2687 13.304 17.9381 13.464C17.6074 13.6133 17.3674 13.848 17.2181 14.168C17.0687 14.488 16.9941 14.8773 16.9941 15.336V23H14.6581ZM13.5701 23V21.016H21.1861V23H13.5701ZM13.6661 17.992V16.28H20.7701V17.992H13.6661ZM20.6101 23V19.608H22.6101V23H20.6101Z" fill="#5E3EEB"/>
</svg>
