<svg width="14" height="12" viewBox="0 0 14 12" fill="none" xmlns="http://www.w3.org/2000/svg">
<g clip-path="url(#clip0_1316_1396)">
<path d="M0 0.890869H13.6241V11.1089H0V0.890869Z" fill="#003399"/>
<path d="M6.81227 5.54419L6.66089 6.04878L6.91319 6.09924L6.81227 5.54419Z" fill="#FFCC00"/>
<path d="M6.81224 5.54419L6.96362 6.04878L6.71133 6.09924L6.81224 5.54419Z" fill="#FFCC00"/>
<path d="M7.29214 5.89275L6.76546 5.90471L6.79544 6.16025L7.29214 5.89275Z" fill="#FFCC00"/>
<path d="M7.29209 5.8929L6.85897 6.19279L6.73301 5.96844L7.29209 5.8929Z" fill="#FFCC00"/>
<path d="M7.10873 6.45714L6.93461 5.95994L6.70084 6.06741L7.10873 6.45714Z" fill="#FFCC00"/>
<path d="M7.10855 6.45716L6.68949 6.13792L6.86394 5.9488L7.10855 6.45716Z" fill="#FFCC00"/>
<path d="M6.33262 5.89275L6.85929 5.90471L6.82932 6.16025L6.33262 5.89275Z" fill="#FFCC00"/>
<path d="M6.33242 5.8929L6.76554 6.19279L6.8915 5.96844L6.33242 5.8929Z" fill="#FFCC00"/>
<path d="M6.51578 6.45714L6.6899 5.95994L6.92368 6.06741L6.51578 6.45714Z" fill="#FFCC00"/>
<path d="M6.51596 6.45716L6.93502 6.13792L6.76057 5.9488L6.51596 6.45716Z" fill="#FFCC00"/>
<path d="M6.81227 5.54419L6.66089 6.04878L6.91319 6.09924L6.81227 5.54419Z" fill="#FFCC00"/>
<path d="M6.81224 5.54419L6.96362 6.04878L6.71133 6.09924L6.81224 5.54419Z" fill="#FFCC00"/>
<path d="M7.29214 5.89275L6.76546 5.90471L6.79544 6.16025L7.29214 5.89275Z" fill="#FFCC00"/>
<path d="M7.29209 5.8929L6.85897 6.19279L6.73301 5.96844L7.29209 5.8929Z" fill="#FFCC00"/>
<path d="M7.10873 6.45714L6.93461 5.95994L6.70084 6.06741L7.10873 6.45714Z" fill="#FFCC00"/>
<path d="M7.10855 6.45716L6.68949 6.13792L6.86394 5.9488L7.10855 6.45716Z" fill="#FFCC00"/>
<path d="M6.33262 5.89275L6.85929 5.90471L6.82932 6.16025L6.33262 5.89275Z" fill="#FFCC00"/>
<path d="M6.33242 5.8929L6.76554 6.19279L6.8915 5.96844L6.33242 5.8929Z" fill="#FFCC00"/>
<path d="M6.51578 6.45714L6.6899 5.95994L6.92368 6.06741L6.51578 6.45714Z" fill="#FFCC00"/>
<path d="M6.51596 6.45716L6.93502 6.13792L6.76057 5.9488L6.51596 6.45716Z" fill="#FFCC00"/>
<path d="M6.81227 5.54419L6.66089 6.04878L6.91319 6.09924L6.81227 5.54419Z" fill="#FFCC00"/>
<path d="M6.81224 5.54419L6.96362 6.04878L6.71133 6.09924L6.81224 5.54419Z" fill="#FFCC00"/>
<path d="M7.29214 5.89275L6.76546 5.90471L6.79544 6.16025L7.29214 5.89275Z" fill="#FFCC00"/>
<path d="M7.29209 5.8929L6.85897 6.19279L6.73301 5.96844L7.29209 5.8929Z" fill="#FFCC00"/>
<path d="M7.10873 6.45714L6.93461 5.95994L6.70084 6.06741L7.10873 6.45714Z" fill="#FFCC00"/>
<path d="M7.10855 6.45716L6.68949 6.13792L6.86394 5.9488L7.10855 6.45716Z" fill="#FFCC00"/>
<path d="M6.33262 5.89275L6.85929 5.90471L6.82932 6.16025L6.33262 5.89275Z" fill="#FFCC00"/>
<path d="M6.33242 5.8929L6.76554 6.19279L6.8915 5.96844L6.33242 5.8929Z" fill="#FFCC00"/>
<path d="M6.51578 6.45714L6.6899 5.95994L6.92368 6.06741L6.51578 6.45714Z" fill="#FFCC00"/>
<path d="M6.51596 6.45716L6.93502 6.13792L6.76057 5.9488L6.51596 6.45716Z" fill="#FFCC00"/>
<path d="M5.03915 3.85804L5.45821 3.5388L5.28376 3.34968L5.03915 3.85804Z" fill="#FFCC00"/>
<path d="M5.03897 3.85802L5.2131 3.36082L5.44687 3.46829L5.03897 3.85802Z" fill="#FFCC00"/>
<path d="M4.85586 3.29377L5.28898 3.59367L5.41493 3.36932L4.85586 3.29377Z" fill="#FFCC00"/>
<path d="M4.85605 3.29363L5.38273 3.30559L5.35276 3.56113L4.85605 3.29363Z" fill="#FFCC00"/>
<path d="M5.33595 2.94507L5.18457 3.44966L5.43687 3.50012L5.33595 2.94507Z" fill="#FFCC00"/>
<path d="M5.33593 2.94507L5.4873 3.44966L5.23501 3.50012L5.33593 2.94507Z" fill="#FFCC00"/>
<path d="M5.63223 3.85829L5.21317 3.53904L5.38763 3.34992L5.63223 3.85829Z" fill="#FFCC00"/>
<path d="M5.63217 3.85827L5.45804 3.36106L5.22427 3.46854L5.63217 3.85827Z" fill="#FFCC00"/>
<path d="M5.81553 3.29402L5.38241 3.59392L5.25645 3.36956L5.81553 3.29402Z" fill="#FFCC00"/>
<path d="M5.81558 3.29387L5.2889 3.30583L5.31888 3.56137L5.81558 3.29387Z" fill="#FFCC00"/>
<path d="M4.50986 4.98058L4.33573 4.48338L4.10196 4.59085L4.50986 4.98058Z" fill="#FFCC00"/>
<path d="M4.50967 4.9806L4.09061 4.66135L4.26507 4.47224L4.50967 4.9806Z" fill="#FFCC00"/>
<path d="M3.91684 4.9806L4.3359 4.66135L4.16145 4.47224L3.91684 4.9806Z" fill="#FFCC00"/>
<path d="M3.9169 4.98058L4.09103 4.48338L4.3248 4.59085L3.9169 4.98058Z" fill="#FFCC00"/>
<path d="M3.73355 4.41658L4.16667 4.71648L4.29262 4.49212L3.73355 4.41658Z" fill="#FFCC00"/>
<path d="M3.73374 4.41643L4.26042 4.42839L4.23044 4.68393L3.73374 4.41643Z" fill="#FFCC00"/>
<path d="M4.69297 4.41633L4.25985 4.71623L4.13389 4.49188L4.69297 4.41633Z" fill="#FFCC00"/>
<path d="M4.69302 4.41619L4.16634 4.42815L4.19632 4.68369L4.69302 4.41619Z" fill="#FFCC00"/>
<path d="M4.21312 4.06763L4.3645 4.57222L4.1122 4.62268L4.21312 4.06763Z" fill="#FFCC00"/>
<path d="M4.21315 4.06763L4.06177 4.57222L4.31406 4.62268L4.21315 4.06763Z" fill="#FFCC00"/>
<path d="M4.69375 7.45134L4.16707 7.4633L4.19705 7.71884L4.69375 7.45134Z" fill="#FFCC00"/>
<path d="M4.69394 7.45149L4.26082 7.75139L4.13487 7.52703L4.69394 7.45149Z" fill="#FFCC00"/>
<path d="M4.51034 8.01525L4.33622 7.51804L4.10244 7.62552L4.51034 8.01525Z" fill="#FFCC00"/>
<path d="M4.51016 8.01527L4.0911 7.69602L4.26556 7.5069L4.51016 8.01527Z" fill="#FFCC00"/>
<path d="M3.91708 8.01527L4.33614 7.69602L4.16169 7.5069L3.91708 8.01527Z" fill="#FFCC00"/>
<path d="M3.91715 8.01525L4.09127 7.51804L4.32504 7.62552L3.91715 8.01525Z" fill="#FFCC00"/>
<path d="M4.21386 7.10254L4.36523 7.60713L4.11294 7.65759L4.21386 7.10254Z" fill="#FFCC00"/>
<path d="M4.21412 7.10254L4.06274 7.60713L4.31504 7.65759L4.21412 7.10254Z" fill="#FFCC00"/>
<path d="M3.73398 7.45085L4.26066 7.46281L4.23068 7.71835L3.73398 7.45085Z" fill="#FFCC00"/>
<path d="M3.73379 7.451L4.16691 7.7509L4.29286 7.52654L3.73379 7.451Z" fill="#FFCC00"/>
<path d="M5.78872 8.46697L5.26204 8.47893L5.29202 8.73447L5.78872 8.46697Z" fill="#FFCC00"/>
<path d="M5.78867 8.46687L5.35555 8.76677L5.2296 8.54241L5.78867 8.46687Z" fill="#FFCC00"/>
<path d="M5.60556 9.03087L5.43143 8.53367L5.19766 8.64114L5.60556 9.03087Z" fill="#FFCC00"/>
<path d="M5.60538 9.03089L5.18632 8.71165L5.36077 8.52253L5.60538 9.03089Z" fill="#FFCC00"/>
<path d="M5.0123 9.03089L5.43136 8.71165L5.25691 8.52253L5.0123 9.03089Z" fill="#FFCC00"/>
<path d="M5.01212 9.03087L5.18624 8.53367L5.42001 8.64114L5.01212 9.03087Z" fill="#FFCC00"/>
<path d="M5.30907 8.11792L5.46045 8.62251L5.20815 8.67297L5.30907 8.11792Z" fill="#FFCC00"/>
<path d="M5.30909 8.11792L5.15771 8.62251L5.41001 8.67297L5.30909 8.11792Z" fill="#FFCC00"/>
<path d="M4.82895 8.46624L5.35563 8.47819L5.32566 8.73374L4.82895 8.46624Z" fill="#FFCC00"/>
<path d="M4.82901 8.46638L5.26212 8.76628L5.38808 8.54192L4.82901 8.46638Z" fill="#FFCC00"/>
<path d="M6.81249 5.54419L6.96387 6.04878L6.71157 6.09924L6.81249 5.54419Z" fill="#FFCC00"/>
<path d="M6.81251 5.54419L6.66113 6.04878L6.91343 6.09924L6.81251 5.54419Z" fill="#FFCC00"/>
<path d="M6.33262 5.89275L6.85929 5.90471L6.82932 6.16025L6.33262 5.89275Z" fill="#FFCC00"/>
<path d="M6.33242 5.8929L6.76554 6.19279L6.8915 5.96844L6.33242 5.8929Z" fill="#FFCC00"/>
<path d="M6.51553 6.45714L6.68966 5.95994L6.92343 6.06741L6.51553 6.45714Z" fill="#FFCC00"/>
<path d="M6.51572 6.45716L6.93478 6.13792L6.76032 5.9488L6.51572 6.45716Z" fill="#FFCC00"/>
<path d="M7.29238 5.89275L6.76571 5.90471L6.79568 6.16025L7.29238 5.89275Z" fill="#FFCC00"/>
<path d="M7.29233 5.8929L6.85921 6.19279L6.73326 5.96844L7.29233 5.8929Z" fill="#FFCC00"/>
<path d="M7.10922 6.4569L6.9351 5.95969L6.70132 6.06717L7.10922 6.4569Z" fill="#FFCC00"/>
<path d="M7.10904 6.45692L6.68998 6.13767L6.86443 5.94855L7.10904 6.45692Z" fill="#FFCC00"/>
<path d="M8.5856 3.85829L8.16654 3.53904L8.341 3.34992L8.5856 3.85829Z" fill="#FFCC00"/>
<path d="M8.58554 3.85827L8.41142 3.36106L8.17764 3.46854L8.58554 3.85827Z" fill="#FFCC00"/>
<path d="M8.7689 3.29402L8.33578 3.59392L8.20982 3.36956L8.7689 3.29402Z" fill="#FFCC00"/>
<path d="M8.76895 3.29387L8.24227 3.30583L8.27224 3.56137L8.76895 3.29387Z" fill="#FFCC00"/>
<path d="M8.28905 2.94531L8.44043 3.44991L8.18813 3.50037L8.28905 2.94531Z" fill="#FFCC00"/>
<path d="M8.28907 2.94531L8.1377 3.44991L8.38999 3.50037L8.28907 2.94531Z" fill="#FFCC00"/>
<path d="M7.99252 3.85804L8.41158 3.5388L8.23713 3.34968L7.99252 3.85804Z" fill="#FFCC00"/>
<path d="M7.99259 3.85802L8.16671 3.36082L8.40048 3.46829L7.99259 3.85802Z" fill="#FFCC00"/>
<path d="M7.80923 3.29402L8.24235 3.59392L8.3683 3.36956L7.80923 3.29402Z" fill="#FFCC00"/>
<path d="M7.80942 3.29387L8.3361 3.30583L8.30613 3.56137L7.80942 3.29387Z" fill="#FFCC00"/>
<path d="M9.1149 4.98058L9.28902 4.48338L9.5228 4.59085L9.1149 4.98058Z" fill="#FFCC00"/>
<path d="M9.11508 4.9806L9.53414 4.66135L9.35969 4.47224L9.11508 4.9806Z" fill="#FFCC00"/>
<path d="M9.70816 4.9806L9.2891 4.66135L9.46355 4.47223L9.70816 4.9806Z" fill="#FFCC00"/>
<path d="M9.7081 4.98058L9.53397 4.48338L9.3002 4.59085L9.7081 4.98058Z" fill="#FFCC00"/>
<path d="M9.89145 4.41633L9.45834 4.71623L9.33238 4.49187L9.89145 4.41633Z" fill="#FFCC00"/>
<path d="M9.89151 4.41619L9.36483 4.42815L9.3948 4.68369L9.89151 4.41619Z" fill="#FFCC00"/>
<path d="M8.93154 4.41609L9.36466 4.71599L9.49062 4.49163L8.93154 4.41609Z" fill="#FFCC00"/>
<path d="M8.93174 4.41594L9.45841 4.4279L9.42844 4.68344L8.93174 4.41594Z" fill="#FFCC00"/>
<path d="M9.41163 4.06738L9.26025 4.57198L9.51255 4.62244L9.41163 4.06738Z" fill="#FFCC00"/>
<path d="M9.41161 4.06738L9.56299 4.57198L9.31069 4.62244L9.41161 4.06738Z" fill="#FFCC00"/>
<path d="M8.93125 7.45134L9.45793 7.4633L9.42795 7.71884L8.93125 7.45134Z" fill="#FFCC00"/>
<path d="M8.9313 7.45149L9.36442 7.75139L9.49038 7.52703L8.9313 7.45149Z" fill="#FFCC00"/>
<path d="M9.11441 8.01525L9.28854 7.51805L9.52231 7.62552L9.11441 8.01525Z" fill="#FFCC00"/>
<path d="M9.11459 8.01527L9.53365 7.69602L9.3592 7.5069L9.11459 8.01527Z" fill="#FFCC00"/>
<path d="M9.70767 8.01527L9.28861 7.69602L9.46306 7.5069L9.70767 8.01527Z" fill="#FFCC00"/>
<path d="M9.70785 8.01525L9.53373 7.51804L9.29996 7.62552L9.70785 8.01525Z" fill="#FFCC00"/>
<path d="M9.4109 7.1023L9.25952 7.60689L9.51182 7.65735L9.4109 7.1023Z" fill="#FFCC00"/>
<path d="M9.41088 7.10229L9.56226 7.60689L9.30996 7.65735L9.41088 7.10229Z" fill="#FFCC00"/>
<path d="M9.89102 7.45061L9.36434 7.46257L9.39431 7.71811L9.89102 7.45061Z" fill="#FFCC00"/>
<path d="M9.89097 7.45076L9.45785 7.75065L9.33189 7.5263L9.89097 7.45076Z" fill="#FFCC00"/>
<path d="M7.83628 8.46672L8.36295 8.47868L8.33298 8.73422L7.83628 8.46672Z" fill="#FFCC00"/>
<path d="M7.83609 8.46687L8.26921 8.76677L8.39516 8.54241L7.83609 8.46687Z" fill="#FFCC00"/>
<path d="M8.01944 9.03063L8.19357 8.53342L8.42734 8.6409L8.01944 9.03063Z" fill="#FFCC00"/>
<path d="M8.01938 9.03065L8.43844 8.7114L8.26399 8.52228L8.01938 9.03065Z" fill="#FFCC00"/>
<path d="M8.6127 9.03065L8.19364 8.7114L8.36809 8.52228L8.6127 9.03065Z" fill="#FFCC00"/>
<path d="M8.61288 9.03063L8.43876 8.53342L8.20499 8.6409L8.61288 9.03063Z" fill="#FFCC00"/>
<path d="M8.31593 8.11792L8.16455 8.62251L8.41685 8.67297L8.31593 8.11792Z" fill="#FFCC00"/>
<path d="M8.31591 8.11792L8.46729 8.62251L8.21499 8.67297L8.31591 8.11792Z" fill="#FFCC00"/>
<path d="M8.7958 8.46648L8.26913 8.47844L8.2991 8.73398L8.7958 8.46648Z" fill="#FFCC00"/>
<path d="M8.79575 8.46638L8.36263 8.76628L8.23668 8.54192L8.79575 8.46638Z" fill="#FFCC00"/>
</g>
<defs>
<clipPath id="clip0_1316_1396">
<rect width="13.6241" height="10.218" fill="white" transform="translate(0 0.890869)"/>
</clipPath>
</defs>
</svg>
