<svg width="36" height="36" viewBox="0 0 36 36" fill="none" xmlns="http://www.w3.org/2000/svg">
<rect width="36" height="36" rx="18" fill="#EBF9FF"/>
<path d="M18.7047 23.272C17.0834 23.272 15.8407 22.7707 14.9767 21.768C14.1234 20.7547 13.6967 19.256 13.6967 17.272V17.048C13.6967 15.0533 14.1127 13.5547 14.9447 12.552C15.7874 11.5493 17.0087 11.048 18.6087 11.048C19.6114 11.048 20.438 11.2187 21.0887 11.56C21.75 11.8907 22.246 12.3493 22.5767 12.936C22.918 13.5227 23.1047 14.2053 23.1367 14.984H20.8807C20.838 14.408 20.63 13.9547 20.2567 13.624C19.894 13.2933 19.3447 13.128 18.6087 13.128C17.702 13.128 17.0354 13.4373 16.6087 14.056C16.1927 14.664 15.9847 15.6987 15.9847 17.16C15.9847 18.6107 16.2034 19.6453 16.6407 20.264C17.0887 20.8827 17.7767 21.192 18.7047 21.192C19.4514 21.192 20.006 21.0267 20.3687 20.696C20.7314 20.3547 20.934 19.9013 20.9767 19.336H23.2327C23.2007 20.104 23.014 20.7867 22.6727 21.384C22.342 21.9707 21.846 22.4347 21.1847 22.776C20.534 23.1067 19.7074 23.272 18.7047 23.272ZM12.4967 19.144V17.848H19.4407V19.144H12.4967ZM12.7847 16.712V15.416H19.7287V16.712H12.7847Z" fill="#00B9FF"/>
</svg>
