<svg width="17" height="16" viewBox="0 0 17 16" fill="none" xmlns="http://www.w3.org/2000/svg">
<path d="M15.6831 8.06919L8.579 0.970272C8.52785 0.91902 8.46709 0.878359 8.40021 0.850617C8.33333 0.822874 8.26163 0.808594 8.18922 0.808594C8.11681 0.808594 8.04511 0.822874 7.97822 0.850617C7.91134 0.878359 7.85058 0.91902 7.79943 0.970272L0.69534 8.06919C0.488374 8.27616 0.371094 8.55729 0.371094 8.85049C0.371094 9.45931 0.866086 9.9543 1.47491 9.9543H2.22344V15.0198C2.22344 15.3251 2.47007 15.5717 2.77534 15.5717H7.0854V11.7083H9.01708V15.5717H13.6031C13.9084 15.5717 14.155 15.3251 14.155 15.0198V9.9543H14.9035C15.1967 9.9543 15.4779 9.83875 15.6848 9.63006C16.1143 9.19888 16.1143 8.50037 15.6831 8.06919Z" fill="white"/>
</svg>
