<svg width="26" height="21" viewBox="0 0 26 21" fill="none" xmlns="http://www.w3.org/2000/svg">
<g opacity="0.5">
<g clip-path="url(#clip0_5374_11172)">
<path d="M-0.000488281 0.75H25.9995V20.25H-0.000488281V0.75Z" fill="white"/>
<path d="M-0.000488281 0.75H25.9995V6.6H-0.000488281V0.75Z" fill="black"/>
<path d="M-0.000488281 14.4H25.9995V20.25H-0.000488281V14.4Z" fill="#006600"/>
<path d="M9.51465 16.2891L9.73402 16.4109L15.4256 6.53907C15.7546 6.46594 15.9375 6.14907 16.1203 5.83219C16.2421 5.61282 16.7296 4.77188 16.9368 3.675C16.3586 4.18882 15.8687 4.79405 15.4865 5.46657C15.3037 5.78344 15.1209 6.10032 15.2062 6.42938L9.51465 16.2891Z" fill="black" stroke="black" stroke-width="0.148707" stroke-miterlimit="10"/>
<path d="M9.51465 16.2891L9.73402 16.4109L15.4256 6.53907C15.7546 6.46594 15.9375 6.14907 16.1203 5.83219C16.2421 5.61282 16.7296 4.77188 16.9368 3.675C16.3586 4.18882 15.8687 4.79405 15.4865 5.46657C15.3037 5.78344 15.1209 6.10032 15.2062 6.42938L9.51465 16.2891Z" fill="white"/>
<path d="M16.4854 16.2891L16.266 16.4109L10.5744 6.53907C10.2454 6.46594 10.0625 6.14907 9.87973 5.83219C9.75785 5.61282 9.27035 4.77188 9.06316 3.675C9.64137 4.18882 10.1313 4.79405 10.5135 5.46657C10.6963 5.78344 10.8791 6.10032 10.7938 6.42938L16.4854 16.2891Z" fill="black" stroke="black" stroke-width="0.148707" stroke-miterlimit="10"/>
<path d="M16.4854 16.2891L16.266 16.4109L10.5744 6.53907C10.2454 6.46594 10.0625 6.14907 9.87973 5.83219C9.75785 5.61282 9.27035 4.77188 9.06316 3.675C9.64137 4.18882 10.1313 4.79405 10.5135 5.46657C10.6963 5.78344 10.8791 6.10032 10.7938 6.42938L16.4854 16.2891Z" fill="white"/>
<path d="M26.0196 7.57499H15.315C14.9493 6.59999 13.7306 4.64999 12.9993 4.64999C12.2681 4.64999 11.0493 6.59999 10.6837 7.57499H-0.00878906V13.425H10.6837C11.0493 14.4 12.2681 16.35 12.9993 16.35C13.7306 16.35 14.9493 14.4 15.315 13.425H26.0196V7.57499Z" fill="#BB0000"/>
<path d="M15.3154 13.425C15.6811 12.45 15.9248 11.475 15.9248 10.5C15.9248 9.525 15.6811 8.55 15.3154 7.575C14.9498 8.55 14.7061 9.525 14.7061 10.5C14.7061 11.475 14.9498 12.45 15.3154 13.425Z" fill="black"/>
<path d="M10.6841 13.425C10.3185 12.45 10.0747 11.475 10.0747 10.5C10.0747 9.525 10.3185 8.55 10.6841 7.575C11.0497 8.55 11.2935 9.525 11.2935 10.5C11.2935 11.475 11.0497 12.45 10.6841 13.425Z" fill="black"/>
<path d="M12.9997 11.2313C13.2689 11.2313 13.4872 10.9039 13.4872 10.5C13.4872 10.0961 13.2689 9.76875 12.9997 9.76875C12.7305 9.76875 12.5122 10.0961 12.5122 10.5C12.5122 10.9039 12.7305 11.2313 12.9997 11.2313Z" fill="white"/>
<path d="M13.1216 11.2069C13.1216 11.2069 13.6091 12.1819 13.6091 13.7663C13.6091 15.3506 13.1216 16.3256 13.1216 16.3256V11.2069Z" fill="white"/>
<path d="M12.8774 9.79312C12.8774 9.79312 12.3899 8.81812 12.3899 7.23375C12.3899 5.64937 12.8774 4.67437 12.8774 4.67437V9.79312Z" fill="white"/>
<path d="M12.8774 11.2069C12.8774 11.2069 12.3899 12.1819 12.3899 13.7663C12.3899 15.3506 12.8774 16.3256 12.8774 16.3256V11.2069Z" fill="white"/>
<path d="M13.1216 9.79312C13.1216 9.79312 13.6091 8.81812 13.6091 7.23375C13.6091 5.64937 13.1216 4.67437 13.1216 4.67437V9.79312Z" fill="white"/>
</g>
</g>
<defs>
<clipPath id="clip0_5374_11172">
<rect y="0.75" width="26" height="19.5" rx="4" fill="white"/>
</clipPath>
</defs>
</svg>
