<svg width="47" height="47" viewBox="0 0 47 47" fill="none" xmlns="http://www.w3.org/2000/svg">
<circle cx="23.5" cy="23.5" r="23.5" fill="#EEF8E8"/>
<path fill-rule="evenodd" clip-rule="evenodd" d="M23.4875 30.8125C25.5125 31.5875 27.625 31.975 29.825 31.975C30.8083 31.975 31.5875 31.7125 32.1625 31.1875C32.7375 30.6625 33.025 30.05 33.025 29.35L32.975 28.925L32.575 26.675C32.4583 26.0083 32.2292 25.525 31.8875 25.225C31.5458 24.925 31.125 24.7917 30.625 24.825C30.0917 24.8583 29.6125 24.875 29.1875 24.875C28.7625 24.875 28.3333 24.8583 27.9 24.825C27.4833 24.7917 27.1583 24.8292 26.925 24.9375C26.6917 25.0458 26.5 25.25 26.35 25.55L25.2 27.875C23.85 27.475 22.4625 26.7292 21.0375 25.6375C19.6125 24.5458 18.5 23.4167 17.7 22.25L19.65 20.35C19.9333 20.0667 20.1042 19.7708 20.1625 19.4625C20.2208 19.1542 20.175 18.825 20.025 18.475C19.8583 18.0583 19.7125 17.5833 19.5875 17.05C19.4625 16.5167 19.35 16 19.25 15.5C19.15 15.0167 18.975 14.6458 18.725 14.3875C18.475 14.1292 18.125 14 17.675 14H15.35C14.6 14 14.0208 14.25 13.6125 14.75C13.2042 15.25 13 15.8667 13 16.6C13 18.8 13.4625 20.8375 14.3875 22.7125C15.3125 24.5875 16.5542 26.2125 18.1125 27.5875C19.6708 28.9625 21.4625 30.0375 23.4875 30.8125ZM22.1716 16.1716C21.4214 16.9217 21 17.9391 21 19C21 20.0609 21.4214 21.0783 22.1716 21.8284C22.9217 22.5786 23.9391 23 25 23C26.0609 23 27.0783 22.5786 27.8284 21.8284C28.5786 21.0783 29 20.0609 29 19C29 17.9391 28.5786 16.9217 27.8284 16.1716C27.0783 15.4214 26.0609 15 25 15C23.9391 15 22.9217 15.4214 22.1716 16.1716ZM24.1484 17.1464C24.2422 17.0527 24.3694 17 24.502 17C24.6346 17 24.7618 17.0527 24.8556 17.1464C24.9493 17.2402 25.002 17.3674 25.002 17.5V19H25.995C26.1276 19 26.2548 19.0527 26.3486 19.1464C26.4423 19.2402 26.495 19.3674 26.495 19.5C26.495 19.6326 26.4423 19.7598 26.3486 19.8536C26.2548 19.9473 26.1276 20 25.995 20H24.502C24.3694 20 24.2422 19.9473 24.1484 19.8536C24.0547 19.7598 24.002 19.6326 24.002 19.5V17.5C24.002 17.3674 24.0547 17.2402 24.1484 17.1464Z" fill="#6CB73B"/>
</svg>
