<svg width="36" height="36" viewBox="0 0 36 36" fill="none" xmlns="http://www.w3.org/2000/svg">
<rect width="36" height="36" rx="18" fill="#F4FAF0"/>
<path d="M14.5099 23V19.048H13.5819V17.864H14.5099V16.712H13.5819V15.528H14.5099V11.576H17.0219L18.2699 15.528H19.7259V11.576H21.5019V15.528H22.4139V16.712H21.5019V17.864H22.4139V19.048H21.5019V23H18.9739L17.6939 19.048H16.2859V23H14.5099ZM16.2859 17.864H17.3419L16.9899 16.712H16.2539L16.2859 17.864ZM19.7739 20.504H19.8539L19.7899 19.048H19.3579L19.7739 20.504ZM16.2219 15.528H16.6699L16.2059 13.992H16.1419L16.2219 15.528ZM19.0219 17.864H19.7579L19.7259 16.712H18.6539L19.0219 17.864Z" fill="#6CB73B"/>
</svg>
