<svg width="18" height="10" viewBox="0 0 18 10" fill="none" xmlns="http://www.w3.org/2000/svg">
<path d="M5 0C3.67392 0 2.40215 0.526784 1.46447 1.46447C0.526784 2.40215 0 3.67392 0 5C0 6.32608 0.526784 7.59785 1.46447 8.53553C2.40215 9.47322 3.67392 10 5 10H12.5C13.8261 10 15.0979 9.47322 16.0355 8.53553C16.9732 7.59785 17.5 6.32608 17.5 5C17.5 3.67392 16.9732 2.40215 16.0355 1.46447C15.0979 0.526784 13.8261 0 12.5 0H5ZM12.5 7.5C11.837 7.5 11.2011 7.23661 10.7322 6.76777C10.2634 6.29893 10 5.66304 10 5C10 4.33696 10.2634 3.70107 10.7322 3.23223C11.2011 2.76339 11.837 2.5 12.5 2.5C13.163 2.5 13.7989 2.76339 14.2678 3.23223C14.7366 3.70107 15 4.33696 15 5C15 5.66304 14.7366 6.29893 14.2678 6.76777C13.7989 7.23661 13.163 7.5 12.5 7.5Z" fill="#009F06"/>
</svg>
