<svg width="22" height="23" viewBox="0 0 22 23" fill="none" xmlns="http://www.w3.org/2000/svg">
<rect x="0.5" y="22.25" width="21.5003" height="21" rx="10.5" transform="rotate(-90 0.5 22.25)" fill="#F0F1F3"/>
<path d="M16.4825 8.39729L16.4821 8.39698L13.1368 5.75948L13.1366 5.75935C12.7266 5.43721 12.125 5.72816 12.125 6.25139L12.125 17.1248C12.125 17.2626 12.2372 17.3748 12.375 17.3748L13.3125 17.3748C13.4503 17.3748 13.5625 17.2626 13.5625 17.1248L13.5625 7.92633L16.2195 10.0214L16.2969 9.92327L16.2195 10.0214C16.3817 10.1493 16.625 10.0352 16.625 9.82483L16.625 8.69202C16.625 8.57734 16.5732 8.46944 16.4825 8.39729ZM8.4375 5.87483L8.4375 15.0733L5.78052 12.9782L5.78052 12.9782C5.61831 12.8503 5.375 12.9644 5.375 13.1748L5.375 14.3076C5.375 14.4223 5.42676 14.5302 5.51753 14.6024L5.51792 14.6027L8.86323 17.2402L8.8634 17.2403C9.27311 17.5622 9.875 17.2719 9.875 16.7498L9.875 5.87483C9.875 5.73704 9.76278 5.62483 9.625 5.62483L8.6875 5.62483C8.54971 5.62483 8.4375 5.73704 8.4375 5.87483Z" fill="#6F6F6F" stroke="#6F6F6F" stroke-width="0.25"/>
</svg>
