<svg width="23" height="23" viewBox="0 0 23 23" fill="none" xmlns="http://www.w3.org/2000/svg">
<circle cx="11.5" cy="11.5" r="11.5" fill="#E1F9E2"/>
<path d="M15.9547 13.0292C15.3072 13.0292 14.6856 12.9256 14.1054 12.7339C14.0143 12.7049 13.9171 12.7011 13.824 12.723C13.731 12.7449 13.6456 12.7917 13.577 12.8582L12.4374 13.9979C10.9668 13.25 9.77157 12.0547 9.02366 10.5841L10.1633 9.43932C10.2319 9.37422 10.2805 9.29091 10.3035 9.19916C10.3264 9.10741 10.3227 9.01102 10.2928 8.9213C10.0963 8.32457 9.99661 7.70022 9.99754 7.07197C9.99754 6.78706 9.76443 6.55396 9.47952 6.55396H7.66646C7.38155 6.55396 7.14844 6.78706 7.14844 7.07197C7.14844 11.9362 11.0906 15.8783 15.9547 15.8783C16.2397 15.8783 16.4728 15.6452 16.4728 15.3603V13.5472C16.4728 13.2623 16.2397 13.0292 15.9547 13.0292ZM15.4367 11.2161H16.4728C16.4728 9.97964 15.9816 8.7938 15.1072 7.91947C14.2329 7.04515 13.0471 6.55396 11.8106 6.55396V7.58999C13.8153 7.58999 15.4367 9.21139 15.4367 11.2161ZM13.3647 11.2161H14.4007C14.4007 9.78639 13.2403 8.62603 11.8106 8.62603V9.66206C12.6705 9.66206 13.3647 10.3562 13.3647 11.2161Z" fill="#009F06"/>
</svg>
