<svg width="26" height="21" viewBox="0 0 26 21" fill="none" xmlns="http://www.w3.org/2000/svg">
<g opacity="0.5">
<g clip-path="url(#clip0_5374_11202)">
<path fill-rule="evenodd" clip-rule="evenodd" d="M0.000976562 0.75H29.2357V20.25H0.000976562V0.75Z" fill="#FFE300"/>
<path fill-rule="evenodd" clip-rule="evenodd" d="M0.000976562 8.67568H29.2357V12.5947H0.000976562V8.67568ZM0.000976562 0.757614H29.2357V4.67666H0.000976562V0.757614Z" fill="#118600"/>
<path fill-rule="evenodd" clip-rule="evenodd" d="M0.000976562 0.761429H11.6743V12.5909H0.000976562V0.761429Z" fill="#D80000"/>
<path fill-rule="evenodd" clip-rule="evenodd" d="M5.11953 5.64023C5.11953 5.60976 5.83936 3.62167 5.83936 3.62167L6.48682 5.60976C6.48682 5.60976 8.67295 5.67451 8.67295 5.64023C8.67295 5.60595 6.94766 6.94658 6.94766 6.94658C6.94766 6.94658 7.7627 9.23173 7.72842 9.16318C7.69795 9.09843 5.83936 7.79208 5.83936 7.79208C5.83936 7.79208 3.94648 9.09843 3.98076 9.09843C4.01123 9.09843 4.69678 6.94658 4.69678 6.94658L3.00195 5.67451L5.11953 5.64023Z" fill="white"/>
<path fill-rule="evenodd" clip-rule="evenodd" d="M0.000976562 16.3348H29.2357V20.25H0.000976562V16.3348Z" fill="#118600"/>
</g>
</g>
<defs>
<clipPath id="clip0_5374_11202">
<rect y="0.75" width="26" height="19.5" rx="4" fill="white"/>
</clipPath>
</defs>
</svg>
