<svg width="19" height="19" viewBox="0 0 19 19" fill="none" xmlns="http://www.w3.org/2000/svg">
<path d="M9.08466 5.86097C7.07086 5.86097 5.44563 7.4862 5.44563 9.5C5.44563 11.5138 7.07086 13.139 9.08466 13.139C11.0985 13.139 12.7237 11.5138 12.7237 9.5C12.7237 7.4862 11.0985 5.86097 9.08466 5.86097ZM9.08466 11.8651C7.78234 11.8651 6.71955 10.8023 6.71955 9.5C6.71955 8.19769 7.78234 7.1349 9.08466 7.1349C10.387 7.1349 11.4498 8.19769 11.4498 9.5C11.4498 10.8023 10.387 11.8651 9.08466 11.8651ZM12.8727 4.86383C12.4025 4.86383 12.0229 5.24352 12.0229 5.71371C12.0229 6.18389 12.4025 6.56358 12.8727 6.56358C13.3429 6.56358 13.7226 6.18566 13.7226 5.71371C13.7227 5.60206 13.7009 5.49148 13.6582 5.38831C13.6155 5.28513 13.5529 5.19139 13.474 5.11244C13.395 5.03349 13.3013 4.9709 13.1981 4.92824C13.095 4.88558 12.9844 4.86369 12.8727 4.86383ZM16.1782 9.5C16.1782 8.5206 16.1871 7.55008 16.1321 6.57245C16.0771 5.43692 15.818 4.42913 14.9877 3.59877C14.1555 2.76664 13.1495 2.50937 12.014 2.45437C11.0346 2.39937 10.0641 2.40824 9.08643 2.40824C8.10703 2.40824 7.13651 2.39937 6.15888 2.45437C5.02335 2.50937 4.01556 2.76842 3.1852 3.59877C2.35307 4.43091 2.0958 5.43692 2.0408 6.57245C1.9858 7.55185 1.99467 8.52238 1.99467 9.5C1.99467 10.4776 1.9858 11.4499 2.0408 12.4275C2.0958 13.5631 2.35485 14.5709 3.1852 15.4012C4.01734 16.2334 5.02335 16.4906 6.15888 16.5456C7.13828 16.6006 8.10881 16.5918 9.08643 16.5918C10.0658 16.5918 11.0364 16.6006 12.014 16.5456C13.1495 16.4906 14.1573 16.2316 14.9877 15.4012C15.8198 14.5691 16.0771 13.5631 16.1321 12.4275C16.1888 11.4499 16.1782 10.4794 16.1782 9.5ZM14.6168 13.6837C14.4873 14.0067 14.3312 14.248 14.081 14.4963C13.8308 14.7465 13.5913 14.9027 13.2684 15.0322C12.3351 15.403 10.1191 15.3196 9.08466 15.3196C8.05026 15.3196 5.83242 15.403 4.89915 15.034C4.57623 14.9044 4.33493 14.7483 4.08653 14.4981C3.83636 14.248 3.68023 14.0084 3.5507 13.6855C3.18166 12.7505 3.26505 10.5344 3.26505 9.5C3.26505 8.4656 3.18166 6.24776 3.5507 5.3145C3.68023 4.99158 3.83636 4.75028 4.08653 4.50188C4.33671 4.25348 4.57623 4.09557 4.89915 3.96605C5.83242 3.597 8.05026 3.68039 9.08466 3.68039C10.1191 3.68039 12.3369 3.597 13.2702 3.96605C13.5931 4.09557 13.8344 4.25171 14.0828 4.50188C14.333 4.75205 14.4891 4.99158 14.6186 5.3145C14.9877 6.24776 14.9043 8.4656 14.9043 9.5C14.9043 10.5344 14.9877 12.7505 14.6168 13.6837Z" fill="#5E3EEB"/>
</svg>
