<svg width="19" height="19" viewBox="0 0 19 19" fill="none" xmlns="http://www.w3.org/2000/svg">
<path fill-rule="evenodd" clip-rule="evenodd" d="M7.96865 7.20547H10.7802V8.60596C11.1852 7.80049 12.2239 7.07677 13.7841 7.07677C16.7751 7.07677 17.4852 8.68015 17.4852 11.6219V17.0702H14.4571V12.2919C14.4571 10.6166 14.0521 9.67184 13.021 9.67184C11.591 9.67184 10.9967 10.69 10.9967 12.2911V17.0702H7.96865V7.20547ZM2.77623 16.9415H5.80432V7.07677H2.77623V16.9415ZM6.23809 3.86018C6.23821 4.11399 6.18787 4.36529 6.09001 4.59948C5.99215 4.83367 5.84872 5.04607 5.66806 5.22434C5.30196 5.58818 4.80642 5.79184 4.29027 5.79059C3.77504 5.79024 3.28064 5.5871 2.91401 5.22509C2.734 5.04622 2.59105 4.83358 2.49336 4.59936C2.39568 4.36515 2.34516 4.11396 2.34473 3.86018C2.34473 3.34768 2.54912 2.85713 2.91476 2.49527C3.28108 2.13278 3.77568 1.92955 4.29103 1.92978C4.80732 1.92978 5.30241 2.13341 5.66806 2.49527C6.03294 2.85713 6.23809 3.34768 6.23809 3.86018Z" fill="#5E3EEB"/>
</svg>
