<svg width="19" height="19" viewBox="0 0 19 19" fill="none" xmlns="http://www.w3.org/2000/svg">
<path d="M15.0759 9.32505V13.7403C15.0759 13.9355 14.9983 14.1227 14.8603 14.2607C14.7223 14.3987 14.5352 14.4762 14.34 14.4762C14.1448 14.4762 13.9577 14.3987 13.8197 14.2607C13.6817 14.1227 13.6041 13.9355 13.6041 13.7403V3.43803C13.6041 3.24286 13.5266 3.05569 13.3886 2.91768C13.2506 2.77968 13.0634 2.70215 12.8682 2.70215H2.56596C2.37079 2.70215 2.18362 2.77968 2.04561 2.91768C1.90761 3.05569 1.83008 3.24286 1.83008 3.43803V13.7403C1.83008 14.9575 2.82057 15.9479 4.03771 15.9479H14.34C15.5571 15.9479 16.5476 14.9575 16.5476 13.7403V9.32505H15.0759ZM10.6606 8.58917V10.0609H4.77359V8.58917H10.6606ZM4.77359 7.11742V5.64566H10.6606V7.11742H4.77359ZM10.6606 11.5327V13.0044H8.45298V11.5327H10.6606Z" fill="white"/>
</svg>
