<svg width="16" height="14" viewBox="0 0 16 14" fill="none" xmlns="http://www.w3.org/2000/svg">
<path d="M14.0759 7.32505V11.7403C14.0759 11.9355 13.9983 12.1227 13.8603 12.2607C13.7223 12.3987 13.5352 12.4762 13.34 12.4762C13.1448 12.4762 12.9577 12.3987 12.8197 12.2607C12.6817 12.1227 12.6041 11.9355 12.6041 11.7403V1.43803C12.6041 1.24286 12.5266 1.05569 12.3886 0.917682C12.2506 0.779678 12.0634 0.702148 11.8682 0.702148H1.56596C1.37079 0.702148 1.18362 0.779678 1.04561 0.917682C0.907608 1.05569 0.830078 1.24286 0.830078 1.43803V11.7403C0.830078 12.9575 1.82057 13.9479 3.03771 13.9479H13.34C14.5571 13.9479 15.5476 12.9575 15.5476 11.7403V7.32505H14.0759ZM9.66061 6.58917V8.06093H3.77359V6.58917H9.66061ZM3.77359 5.11742V3.64566H9.66061V5.11742H3.77359ZM9.66061 9.53268V11.0044H7.45298V9.53268H9.66061Z" fill="#C8C8C8"/>
</svg>