<svg width="36" height="36" viewBox="0 0 36 36" fill="none" xmlns="http://www.w3.org/2000/svg">
<rect width="36" height="36" rx="18" fill="#FEECFA"/>
<path d="M16.968 8.32502C17.2676 8.10624 17.629 7.98834 18 7.98834C18.371 7.98834 18.7324 8.10624 19.032 8.32502L26.453 13.741C27.43 14.453 26.927 15.998 25.719 16.001H10.28C9.072 15.998 8.57 14.453 9.546 13.741L16.967 8.32502H16.968ZM19 12.25C19 11.9848 18.8946 11.7305 18.7071 11.5429C18.5196 11.3554 18.2652 11.25 18 11.25C17.7348 11.25 17.4804 11.3554 17.2929 11.5429C17.1054 11.7305 17 11.9848 17 12.25C17 12.5152 17.1054 12.7696 17.2929 12.9571C17.4804 13.1447 17.7348 13.25 18 13.25C18.2652 13.25 18.5196 13.1447 18.7071 12.9571C18.8946 12.7696 19 12.5152 19 12.25ZM17.25 22H15.25V17H17.25V22ZM20.75 22H18.75V17H20.75V22ZM24.5 22H22.25V17H24.5V22ZM24.75 23H11.25C10.6533 23 10.081 23.2371 9.65901 23.659C9.23705 24.081 9 24.6533 9 25.25V25.75C9 26.165 9.336 26.5 9.75 26.5H26.25C26.4489 26.5 26.6397 26.421 26.7803 26.2804C26.921 26.1397 27 25.9489 27 25.75V25.25C27 24.6533 26.7629 24.081 26.341 23.659C25.919 23.2371 25.3467 23 24.75 23ZM13.75 22H11.5V17H13.75V22Z" fill="#E93EAF"/>
</svg>
