<svg width="36" height="36" viewBox="0 0 36 36" fill="none" xmlns="http://www.w3.org/2000/svg">
<rect width="36" height="36" rx="18" fill="#FEECFA"/>
<path d="M18.0371 23.064C16.9917 23.064 16.1224 22.9147 15.4291 22.616C14.7357 22.3067 14.2131 21.8747 13.8611 21.32C13.5091 20.7547 13.3331 20.0933 13.3331 19.336H15.6851C15.6851 19.6347 15.7651 19.9173 15.9251 20.184C16.0851 20.44 16.3411 20.648 16.6931 20.808C17.0451 20.9573 17.4931 21.032 18.0371 21.032C18.7624 21.032 19.3171 20.904 19.7011 20.648C20.0957 20.392 20.2931 20.0507 20.2931 19.624C20.2931 19.2507 20.1277 18.9467 19.7971 18.712C19.4664 18.4667 18.9384 18.3067 18.2131 18.232L17.3971 18.168C16.2557 18.0613 15.3491 17.72 14.6771 17.144C14.0051 16.5573 13.6691 15.7307 13.6691 14.664C13.6691 13.928 13.8344 13.3147 14.1651 12.824C14.4957 12.3227 14.9704 11.9493 15.5891 11.704C16.2077 11.448 16.9491 11.32 17.8131 11.32C18.7411 11.32 19.5197 11.464 20.1491 11.752C20.7784 12.04 21.2531 12.456 21.5731 13C21.9037 13.544 22.0691 14.2053 22.0691 14.984H19.7171C19.7171 14.6747 19.6424 14.4027 19.4931 14.168C19.3544 13.9227 19.1464 13.7253 18.8691 13.576C18.5917 13.4267 18.2397 13.352 17.8131 13.352C17.4397 13.352 17.1197 13.4053 16.8531 13.512C16.5864 13.6187 16.3837 13.7733 16.2451 13.976C16.1064 14.168 16.0371 14.3973 16.0371 14.664C16.0371 14.9947 16.1597 15.2933 16.4051 15.56C16.6504 15.816 17.0557 15.976 17.6211 16.04L18.4371 16.104C19.7171 16.2107 20.7411 16.5573 21.5091 17.144C22.2771 17.7307 22.6611 18.5573 22.6611 19.624C22.6611 20.36 22.4797 20.984 22.1171 21.496C21.7544 22.008 21.2264 22.3973 20.5331 22.664C19.8504 22.9307 19.0184 23.064 18.0371 23.064ZM16.9011 25.064V22.728H18.9971V25.064H16.9011ZM16.8371 12.104V9.768H18.9331V12.104H16.8371Z" fill="#E93EAF"/>
</svg>
