<svg width="16" height="16" viewBox="0 0 16 16" fill="none" xmlns="http://www.w3.org/2000/svg">
<path d="M15.3337 8L13.707 6.14L13.9337 3.68L11.527 3.13333L10.267 1L8.00033 1.97333L5.73366 1L4.47366 3.12667L2.06699 3.66667L2.29366 6.13333L0.666992 8L2.29366 9.86L2.06699 12.3267L4.47366 12.8733L5.73366 15L8.00033 14.02L10.267 14.9933L11.527 12.8667L13.9337 12.32L13.707 9.86L15.3337 8ZM6.25366 10.6733L4.66699 9.07333C4.60519 9.01166 4.55616 8.9384 4.5227 8.85775C4.48925 8.7771 4.47203 8.69065 4.47203 8.60333C4.47203 8.51602 4.48925 8.42957 4.5227 8.34892C4.55616 8.26827 4.60519 8.19501 4.66699 8.13333L4.71366 8.08667C4.97366 7.82667 5.40033 7.82667 5.66033 8.08667L6.73366 9.16667L10.167 5.72667C10.427 5.46667 10.8537 5.46667 11.1137 5.72667L11.1603 5.77333C11.4203 6.03333 11.4203 6.45333 11.1603 6.71333L7.21366 10.6733C6.94032 10.9333 6.52033 10.9333 6.25366 10.6733Z" fill="#1B6FED"/>
</svg>
