<svg width="24" height="24" viewBox="0 0 24 24" fill="none" xmlns="http://www.w3.org/2000/svg">
<path d="M5.33398 12.6666V7.33325H3.33398C2.80355 7.33325 2.29484 7.54397 1.91977 7.91904C1.5447 8.29411 1.33398 8.80282 1.33398 9.33325V21.3333C1.33498 21.4571 1.37043 21.5782 1.43637 21.683C1.50231 21.7877 1.59613 21.8721 1.70732 21.9266C1.81444 21.9753 1.93254 21.9948 2.04963 21.9831C2.16673 21.9714 2.27863 21.9289 2.37398 21.8599L5.80732 19.3333H14.7673C15.02 19.3407 15.2715 19.2962 15.5063 19.2026C15.7411 19.1089 15.9541 18.968 16.1322 18.7886C16.3104 18.6092 16.4497 18.3952 16.5418 18.1598C16.6338 17.9244 16.6766 17.6725 16.6673 17.4199V16.6666H9.33398C8.27312 16.6666 7.2557 16.2452 6.50556 15.495C5.75541 14.7449 5.33398 13.7275 5.33398 12.6666Z" fill="#C8C8C8"/>
<path d="M20.6673 2.66675H9.33398C8.80355 2.66675 8.29484 2.87746 7.91977 3.25253C7.5447 3.62761 7.33398 4.13632 7.33398 4.66675V12.6667C7.33398 13.1972 7.5447 13.7059 7.91977 14.081C8.29484 14.456 8.80355 14.6667 9.33398 14.6667H18.3673L21.554 17.1401C21.6487 17.2101 21.7603 17.2538 21.8774 17.2667C21.9945 17.2796 22.113 17.2612 22.2207 17.2134C22.3341 17.1594 22.43 17.0744 22.4972 16.9682C22.5644 16.8621 22.6003 16.7391 22.6007 16.6134V4.66675C22.6009 4.14767 22.3994 3.64881 22.0386 3.27559C21.6779 2.90238 21.1861 2.68405 20.6673 2.66675Z" fill="#C8C8C8"/>
</svg>
