<svg width="150" height="150" viewBox="0 0 150 150" fill="none" xmlns="http://www.w3.org/2000/svg">
<path d="M75 12.5C40.5375 12.5 12.5 40.5375 12.5 75C12.5 109.463 40.5375 137.5 75 137.5C109.463 137.5 137.5 109.463 137.5 75C137.5 40.5375 109.463 12.5 75 12.5ZM75 125C47.4313 125 25 102.569 25 75C25 47.4313 47.4313 25 75 25C102.569 25 125 47.4313 125 75C125 102.569 102.569 125 75 125Z" fill="black"/>
<path d="M62.4936 84.9188L48.1248 70.575L39.2998 79.425L62.5061 102.581L104.419 60.6688L95.5811 51.8313L62.4936 84.9188Z" fill="black"/>
</svg>
