<svg width="20" height="20" viewBox="0 0 20 20" fill="none" xmlns="http://www.w3.org/2000/svg">
<path d="M6 4C6 3.46957 6.21071 2.96086 6.58579 2.58579C6.96086 2.21071 7.46957 2 8 2H14C14.5304 2 15.0391 2.21071 15.4142 2.58579C15.7893 2.96086 16 3.46957 16 4V14C16 14.5304 15.7893 15.0391 15.4142 15.4142C15.0391 15.7893 14.5304 16 14 16H8C7.46957 16 6.96086 15.7893 6.58579 15.4142C6.21071 15.0391 6 14.5304 6 14V4ZM4 6C4.00001 5.64894 4.09243 5.30406 4.26796 5.00003C4.4435 4.696 4.69597 4.44353 5 4.268V14.5C5 15.163 5.26339 15.7989 5.73223 16.2678C6.20107 16.7366 6.83696 17 7.5 17H13.732C13.5565 17.304 13.304 17.5565 13 17.732C12.6959 17.9076 12.3511 18 12 18H7.5C6.57174 18 5.6815 17.6313 5.02513 16.9749C4.36875 16.3185 4 15.4283 4 14.5V6Z" fill="#5B5B5B"/>
</svg>
