<svg width="18" height="11" viewBox="0 0 18 11" fill="none" xmlns="http://www.w3.org/2000/svg">
<path d="M5 3C4.33696 3 3.70108 3.26339 3.23223 3.73223C2.76339 4.20107 2.5 4.83696 2.5 5.5C2.5 6.16304 2.76339 6.79892 3.23223 7.26777C3.70107 7.73661 4.33696 8 5 8C5.66304 8 6.29893 7.73661 6.76777 7.26777C7.23661 6.79893 7.5 6.16304 7.5 5.5C7.5 4.83696 7.23661 4.20107 6.76777 3.73223C6.29893 3.26339 5.66304 3 5 3ZM17.5 5.5C17.5 6.82608 16.9732 8.09785 16.0355 9.03553C15.0979 9.97322 13.8261 10.5 12.5 10.5L5 10.5C3.67392 10.5 2.40215 9.97321 1.46447 9.03553C0.526785 8.09785 3.21184e-07 6.82608 4.37114e-07 5.5C5.53044e-07 4.17392 0.526786 2.90215 1.46447 1.96446C2.40215 1.02678 3.67392 0.499999 5 0.499999L12.5 0.5C13.8261 0.5 15.0979 1.02678 16.0355 1.96447C16.9732 2.90215 17.5 4.17392 17.5 5.5ZM12.5 9.25C13.4946 9.25 14.4484 8.85491 15.1517 8.15165C15.8549 7.44839 16.25 6.49456 16.25 5.5C16.25 4.50544 15.8549 3.55161 15.1517 2.84835C14.4484 2.14509 13.4946 1.75 12.5 1.75L5 1.75C4.00544 1.75 3.05161 2.14509 2.34835 2.84835C1.64509 3.55161 1.25 4.50544 1.25 5.5C1.25 6.49456 1.64509 7.44839 2.34835 8.15165C3.05161 8.85491 4.00544 9.25 5 9.25L12.5 9.25Z" fill="black"/>
</svg>
