<?xml version="1.0" encoding="UTF-8"?>
<svg xmlns="http://www.w3.org/2000/svg" xmlns:xlink="http://www.w3.org/1999/xlink" width="30px" height="20px" viewBox="0 0 30 20" version="1.1">
<g id="surface1">
<rect x="0" y="0" width="30" height="20" style="fill:rgb(100%,100%,100%);fill-opacity:1;stroke:none;"/>
<path style=" stroke:none;fill-rule:nonzero;fill:rgb(0.392157%,25.490196%,10.980392%);fill-opacity:1;" d="M 7.5 0 L 30 0 L 30 20 L 7.5 20 Z M 7.5 0 "/>
<path style=" stroke:none;fill-rule:nonzero;fill:rgb(100%,100%,100%);fill-opacity:1;" d="M 24.75 10 C 24.75 13.3125 22.0625 16 18.75 16 C 15.4375 16 12.75 13.3125 12.75 10 C 12.75 6.6875 15.4375 4 18.75 4 C 22.0625 4 24.75 6.6875 24.75 10 Z M 24.75 10 "/>
<path style=" stroke:none;fill-rule:nonzero;fill:rgb(0.392157%,25.490196%,10.980392%);fill-opacity:1;" d="M 24.394531 4.984375 C 26.414062 7.253906 26.207031 10.730469 23.9375 12.746094 C 21.667969 14.765625 18.191406 14.5625 16.171875 12.289062 C 14.15625 10.019531 14.359375 6.542969 16.628906 4.527344 C 18.898438 2.507812 22.375 2.710938 24.394531 4.984375 Z M 24.394531 4.984375 "/>
<path style=" stroke:none;fill-rule:nonzero;fill:rgb(100%,100%,100%);fill-opacity:1;" d="M 20.9375 5.511719 L 23.464844 8.351562 L 19.75 7.539062 L 23.234375 6.015625 L 21.3125 9.296875 Z M 20.9375 5.511719 "/>
</g>
</svg>
