<svg width="47" height="47" viewBox="0 0 47 47" fill="none" xmlns="http://www.w3.org/2000/svg">
<circle cx="23.5" cy="23.5" r="23.5" fill="#F0E7F8"/>
<path d="M29.825 32.975C27.625 32.975 25.5125 32.5875 23.4875 31.8125C21.4625 31.0375 19.6708 29.9625 18.1125 28.5875C16.5542 27.2125 15.3125 25.5875 14.3875 23.7125C13.4625 21.8375 13 19.8 13 17.6C13 16.8667 13.2042 16.25 13.6125 15.75C14.0208 15.25 14.6 15 15.35 15H17.675C18.125 15 18.475 15.1292 18.725 15.3875C18.975 15.6458 19.15 16.0167 19.25 16.5C19.35 17 19.4625 17.5167 19.5875 18.05C19.7125 18.5833 19.8583 19.0583 20.025 19.475C20.175 19.825 20.2208 20.1542 20.1625 20.4625C20.1042 20.7708 19.9333 21.0667 19.65 21.35L17.7 23.25C18.5 24.4167 19.6125 25.5458 21.0375 26.6375C22.4625 27.7292 23.85 28.475 25.2 28.875L26.35 26.55C26.5 26.25 26.6917 26.0458 26.925 25.9375C27.1583 25.8292 27.4833 25.7917 27.9 25.825C28.3333 25.8583 28.7625 25.875 29.1875 25.875C29.6125 25.875 30.0917 25.8583 30.625 25.825C31.125 25.7917 31.5458 25.925 31.8875 26.225C32.2292 26.525 32.4583 27.0083 32.575 27.675L32.975 29.925C32.975 29.925 32.9917 30.0667 33.025 30.35C33.025 31.05 32.7375 31.6625 32.1625 32.1875C31.5875 32.7125 30.8083 32.975 29.825 32.975Z" fill="#8F4FD0"/>
</svg>
