<svg width="14" height="12" viewBox="0 0 14 12" fill="none" xmlns="http://www.w3.org/2000/svg">
<g clip-path="url(#clip0_1316_1399)">
<path d="M0 0.890869H13.6241V11.1089H0V0.890869Z" fill="#012169"/>
<path d="M1.59657 0.890869L6.79074 4.74392L11.9636 0.890869H13.6241V2.2107L8.51504 6.02118L13.6241 9.81037V11.1089H11.9211L6.81203 7.29843L1.7243 11.1089H0V9.83166L5.08774 6.04247L0 2.25328V0.890869H1.59657Z" fill="white"/>
<path d="M9.02594 6.87268L13.6241 10.2574V11.1089L7.85512 6.87268H9.02594ZM5.10902 7.29843L5.23675 8.0435L1.14953 11.1089H0L5.10902 7.29843ZM13.6241 0.890869V0.954732L8.32345 4.9568L8.36602 4.02015L12.5597 0.890869H13.6241ZM0 0.890869L5.08774 4.63749H3.81048L0 1.78495V0.890869Z" fill="#C8102E"/>
<path d="M5.13031 0.890869V11.1089H8.53633V0.890869H5.13031ZM0 4.29688V7.7029H13.6241V4.29688H0Z" fill="white"/>
<path d="M0 4.99937V7.04298H13.6241V4.99937H0ZM5.81151 0.890869V11.1089H7.85512V0.890869H5.81151Z" fill="#C8102E"/>
</g>
<defs>
<clipPath id="clip0_1316_1399">
<rect width="13.6241" height="10.218" fill="white" transform="translate(0 0.890869)"/>
</clipPath>
</defs>
</svg>
