<svg width="80" height="79" viewBox="0 0 80 79" fill="none" xmlns="http://www.w3.org/2000/svg">
<path d="M52.3438 44.4375L48.8628 47.9184L42.4688 41.5491V71.5938H37.5312V41.5491L31.1372 47.9184L27.6562 44.4375L40 32.0938L52.3438 44.4375Z" fill="black"/>
<path d="M21.4844 54.3125H22.7188V49.375H21.4844C18.538 49.4929 15.6655 48.4354 13.4987 46.4354C11.332 44.4353 10.0485 41.6564 9.93066 38.71C9.81281 35.7636 10.8702 32.8911 12.8703 30.7243C14.8704 28.5576 17.6493 27.2741 20.5957 27.1563H22.7188L22.9657 25.1319C23.5134 20.9756 25.5532 17.1601 28.7053 14.3962C31.8573 11.6323 35.9066 10.1084 40.0988 10.1084C44.291 10.1084 48.3403 11.6323 51.4923 14.3962C54.6443 17.1601 56.6842 20.9756 57.2319 25.1319L57.2813 27.1563H59.4044C62.3508 27.2741 65.1297 28.5576 67.1298 30.7243C69.1299 32.8911 70.1873 35.7636 70.0694 38.71C69.9516 41.6564 68.6681 44.4353 66.5013 46.4354C64.3346 48.4354 61.4621 49.4929 58.5157 49.375H57.2813V54.3125H58.5157C62.4745 54.2874 66.2844 52.7998 69.2128 50.1356C72.1412 47.4714 73.9814 43.8188 74.3795 39.8799C74.7777 35.941 73.7058 31.994 71.3698 28.7976C69.0339 25.6013 65.5988 23.3813 61.725 22.5644C60.6593 17.5936 57.9211 13.1386 53.9675 9.94282C50.0138 6.74701 45.0838 5.00366 40 5.00366C34.9163 5.00366 29.9863 6.74701 26.0326 9.94282C22.079 13.1386 19.3408 17.5936 18.275 22.5644C14.4013 23.3813 10.9662 25.6013 8.63026 28.7976C6.29431 31.994 5.22238 35.941 5.62055 39.8799C6.01873 43.8188 7.85891 47.4714 10.7873 50.1356C13.7157 52.7998 17.5255 54.2874 21.4844 54.3125Z" fill="black"/>
</svg>
