<svg width="14" height="12" viewBox="0 0 14 12" fill="none" xmlns="http://www.w3.org/2000/svg">
<path fill-rule="evenodd" clip-rule="evenodd" d="M0 0.890869H19.4143V1.67719H0V0.890869ZM0 2.46349H19.4143V3.24981H0V2.46349ZM0 4.03411H19.4143V4.82241H0V4.03411ZM0 5.60673H19.4143V6.39305H0V5.60673ZM0 7.17935H19.4143V7.96567H0V7.17935ZM0 8.74997H19.4143V9.53629H0V8.74997ZM0 10.3226H19.4143V11.1089H0V10.3226Z" fill="#BD3D44"/>
<path fill-rule="evenodd" clip-rule="evenodd" d="M0 1.677H19.4143V2.4633H0V1.677ZM0 3.2496H19.4143V4.03392H0V3.2496ZM0 4.82024H19.4143V5.60654H0V4.82024ZM0 6.39286H19.4143V7.17916H0V6.39286ZM0 7.96549H19.4143V8.75179H0V7.96549ZM0 9.53611H19.4143V10.3224H0V9.53611Z" fill="white"/>
<path fill-rule="evenodd" clip-rule="evenodd" d="M0 0.890869H7.76531V6.39305H0V0.890869Z" fill="#192F5D"/>
<path fill-rule="evenodd" clip-rule="evenodd" d="M0.646758 1.12646L0.718604 1.34396H0.946126L0.762499 1.47769L0.832365 1.69721L0.646758 1.5615L0.463153 1.69521L0.532997 1.47769L0.347412 1.34396H0.578915L0.646758 1.12646ZM1.94198 1.12646L2.01183 1.34396H2.24133L2.05572 1.47769L2.12559 1.69721L1.94198 1.5615L1.75637 1.69521L1.82622 1.47769L1.64261 1.34396H1.87014L1.94198 1.12646ZM3.2352 1.12646L3.30705 1.34398H3.53257L3.34896 1.47771L3.41879 1.69723L3.2332 1.56152L3.0496 1.69523L3.11944 1.47771L2.93383 1.34398H3.16336L3.2352 1.12646ZM4.53043 1.12646L4.60025 1.34398H4.82977L4.64416 1.47771L4.71601 1.69723L4.5304 1.56152L4.34482 1.69523L4.41666 1.47771L4.23106 1.34398H4.45858L4.53043 1.12646ZM5.82365 1.12646L5.89549 1.34398H6.12299L5.93939 1.47771L6.00923 1.69723L5.82363 1.56152L5.64002 1.69523L5.70989 1.47771L5.52628 1.34398H5.75378L5.82365 1.12646ZM7.11885 1.12646L7.18869 1.34398H7.41822L7.23261 1.47771L7.30445 1.69723L7.11885 1.56152L6.93324 1.69523L7.00509 1.47771L6.8195 1.34398H7.049L7.11885 1.12646ZM1.29537 1.67724L1.36521 1.8948H1.59472L1.40911 2.02848L1.47697 2.24604L1.29735 2.11231L1.11176 2.24602L1.17761 2.02851L0.998004 1.89478H1.22553L1.29537 1.67724ZM2.58859 1.67724L2.66044 1.8948H2.88794L2.70233 2.02848L2.7742 2.24604L2.58857 2.11231L2.40299 2.24602L2.47483 2.02851L2.28922 1.89478H2.51873L2.58859 1.67724ZM3.88381 1.67724L3.95364 1.8948H4.18316L3.99755 2.02848L4.0674 2.24604L3.88379 2.11231L3.69821 2.24602L3.76805 2.02853L3.58445 1.8948H3.81197L3.88381 1.67724ZM5.17704 1.67724L5.24888 1.8948H5.47638L5.29078 2.02848L5.36262 2.24604L5.17701 2.11231L4.99341 2.24602L5.06327 2.02851L4.87767 1.89478H5.10917L5.17704 1.67724ZM6.47224 1.67724L6.54208 1.8948H6.7716L6.586 2.02848L6.65584 2.24604L6.47224 2.11231L6.28663 2.24602L6.3565 2.02851L6.17289 1.89478H6.40039L6.47224 1.67724ZM0.646758 2.22612L0.718604 2.44764H0.946126L0.762499 2.58134L0.832365 2.79888L0.646758 2.66317L0.463153 2.79888L0.532997 2.57934L0.347412 2.44566H0.578915L0.646758 2.22612ZM1.94198 2.22612L2.01183 2.44559H2.24133L2.05572 2.5793L2.12559 2.79686L1.94198 2.66113L1.75637 2.79684L1.82622 2.57732L1.64261 2.44361H1.87014L1.94198 2.22612ZM3.2352 2.22612L3.30705 2.44564H3.53257L3.34896 2.57934L3.41879 2.7969L3.2332 2.66117L3.0496 2.79688L3.11944 2.57736L2.93383 2.44366H3.16336L3.2352 2.22612ZM4.53043 2.22612L4.60025 2.44564H4.82977L4.64416 2.57934L4.71601 2.7969L4.5304 2.66117L4.34482 2.79688L4.41666 2.57736L4.23106 2.44366H4.45858L4.53043 2.22612ZM5.82365 2.22612L5.89549 2.44564H6.12299L5.93939 2.57932L6.00923 2.79688L5.82363 2.66115L5.64002 2.79686L5.70989 2.57734L5.52628 2.44363H5.75378L5.82365 2.22612ZM7.11885 2.22612L7.18869 2.44564H7.41822L7.23261 2.57934L7.30445 2.7969L7.11885 2.66117L6.93324 2.79688L7.00509 2.57736L6.8195 2.44366H7.049L7.11885 2.22612ZM1.29537 2.77691L1.36521 2.99445H1.59472L1.40911 3.12814L1.47898 3.34768L1.29537 3.21197L1.10976 3.34567L1.17961 3.12816L0.996003 2.99445H1.22355L1.29537 2.77691ZM2.58859 2.77691L2.66044 2.99445H2.88794L2.70233 3.12814L2.7742 3.34768L2.58857 3.21197L2.40299 3.34567L2.47483 3.12816L2.28922 2.99445H2.51873L2.58859 2.77691ZM3.88381 2.77691L3.95364 2.99445H4.18316L3.99755 3.12814L4.0674 3.34768L3.88379 3.21197L3.69821 3.34567L3.76805 3.12816L3.58445 2.99445H3.81197L3.88381 2.77691ZM5.17704 2.77691L5.24888 2.99445H5.47638L5.29278 3.12814L5.36262 3.34768L5.17701 3.21197L4.99341 3.34567L5.06327 3.12816L4.87767 2.99445H5.10917L5.17704 2.77691ZM6.47224 2.77691L6.54208 2.99445H6.7716L6.586 3.12814L6.65584 3.34768L6.47224 3.21197L6.28663 3.34567L6.3565 3.12816L6.17289 2.99445H6.40039L6.47224 2.77691ZM0.646758 3.32773L0.718604 3.54527H0.946126L0.762499 3.67895L0.832365 3.89849L0.646758 3.76278L0.463153 3.89649L0.532997 3.67897L0.347412 3.54527H0.578915L0.646758 3.32773ZM1.94198 3.32773L2.01183 3.54527H2.24133L2.05572 3.67895L2.12559 3.89651L1.94198 3.76278L1.75637 3.89649L1.82622 3.67897L1.64261 3.54527H1.87014L1.94198 3.32773ZM3.2352 3.32773L3.30705 3.54527H3.53257L3.34896 3.67895L3.41879 3.89849L3.2332 3.76278L3.0496 3.89649L3.11944 3.67897L2.93383 3.54527H3.16336L3.2352 3.32773ZM4.53043 3.32773L4.60025 3.54527H4.82977L4.64416 3.67895L4.71601 3.89849L4.5304 3.76278L4.34482 3.89649L4.41666 3.67897L4.23106 3.54527H4.45858L4.53043 3.32773ZM5.82365 3.32773L5.89549 3.54527H6.12299L5.93939 3.67895L6.00923 3.89849L5.82363 3.76278L5.64002 3.89649L5.70989 3.67897L5.52628 3.54527H5.75378L5.82365 3.32773ZM7.11885 3.32773L7.18869 3.54527H7.41822L7.23261 3.67895L7.30445 3.89849L7.11885 3.76278L6.93324 3.89649L7.00509 3.67897L6.8195 3.54527H7.049L7.11885 3.32773ZM1.29537 3.87855L1.36521 4.09608H1.59472L1.40911 4.22977L1.47898 4.44733L1.29537 4.31162L1.10976 4.44733L1.17961 4.22779L0.996003 4.09408H1.22355L1.29537 3.87855ZM2.58859 3.87855L2.66044 4.09608H2.88794L2.70233 4.22977L2.7742 4.44733L2.58857 4.31162L2.40299 4.44733L2.47483 4.22779L2.28922 4.09408H2.51873L2.58859 3.87855ZM3.88381 3.87855L3.95364 4.09608H4.18316L3.99755 4.22977L4.0674 4.44733L3.88379 4.31162L3.69821 4.44733L3.76805 4.22779L3.58445 4.09408H3.81197L3.88381 3.87855ZM5.17704 3.87855L5.24888 4.09608H5.47638L5.29278 4.22977L5.36262 4.44733L5.17701 4.31162L4.99341 4.44733L5.06327 4.22779L4.87767 4.09408H5.10917L5.17704 3.87855ZM6.47224 3.87855L6.54208 4.09608H6.7716L6.586 4.22977L6.65584 4.44733L6.47224 4.31162L6.28663 4.44733L6.3565 4.22779L6.17289 4.09408H6.40039L6.47224 3.87855ZM0.646758 4.42736L0.718604 4.6469H0.946126L0.762499 4.78059L0.832365 4.99614L0.646758 4.86244L0.463153 4.99612L0.532997 4.77861L0.347412 4.6449H0.578915L0.646758 4.42736ZM1.94198 4.42736L2.01183 4.6469H2.24133L2.05572 4.78059L2.12759 4.99614L1.94196 4.86244L1.75637 4.99612L1.82822 4.77861L1.64261 4.6449H1.87014L1.94198 4.42736ZM3.2352 4.42736L3.30705 4.6469H3.53257L3.34896 4.78059L3.41879 4.99614L3.2332 4.86244L3.0496 4.99612L3.11944 4.77861L2.93383 4.6449H3.16336L3.2352 4.42736ZM4.53043 4.42736L4.60025 4.6469H4.82977L4.64416 4.78059L4.71601 4.99614L4.5304 4.86244L4.34482 4.99612L4.41666 4.77861L4.23106 4.6449H4.45858L4.53043 4.42736ZM5.82365 4.42736L5.89549 4.6469H6.12299L5.93939 4.78059L6.00923 4.99614L5.82363 4.86244L5.64002 4.99612L5.70989 4.77861L5.52628 4.6449H5.75378L5.82365 4.42736ZM7.11885 4.42736L7.18869 4.6469H7.41822L7.23261 4.78059L7.30445 4.99614L7.11885 4.86244L6.93324 4.99612L7.00509 4.77861L6.8195 4.6449H7.049L7.11885 4.42736ZM1.29537 4.97818L1.36521 5.19572H1.59472L1.40911 5.32942L1.47898 5.54896L1.29537 5.41325L1.10976 5.54694L1.17961 5.32942L0.996003 5.19572H1.22355L1.29537 4.97818ZM2.58859 4.97818L2.66044 5.19572H2.88794L2.70233 5.32942L2.7742 5.54896L2.58857 5.41325L2.40299 5.54694L2.47483 5.32942L2.28922 5.19572H2.51873L2.58859 4.97818ZM3.88381 4.97818L3.95364 5.19572H4.18316L3.99755 5.32942L4.0674 5.54896L3.88379 5.41325L3.69821 5.54694L3.76805 5.32942L3.58445 5.19572H3.81197L3.88381 4.97818ZM5.17704 4.97818L5.24888 5.19572H5.47638L5.29278 5.32942L5.36262 5.54896L5.17701 5.41325L4.99341 5.54694L5.06327 5.32942L4.87767 5.19572H5.10917L5.17704 4.97818ZM6.47224 4.97818L6.54208 5.19572H6.7716L6.586 5.32942L6.65584 5.54896L6.47224 5.41325L6.28663 5.54694L6.3565 5.32942L6.17289 5.19572H6.40039L6.47224 4.97818ZM0.646758 5.52899L0.718604 5.74653H0.946126L0.762499 5.88024L0.832365 6.09778L0.646758 5.96407L0.463153 6.09776L0.532997 5.87824L0.347412 5.74453H0.578915L0.646758 5.52899ZM1.94198 5.52899L2.01183 5.74653H2.24133L2.05572 5.88024L2.12759 6.09778L1.94196 5.96407L1.75637 6.09776L1.82822 5.87824L1.64261 5.74453H1.87014L1.94198 5.52899ZM3.2352 5.52899L3.30705 5.74653H3.53257L3.35294 5.88024L3.42279 6.09778L3.23718 5.96407L3.05358 6.09776L3.12344 5.87824L2.93784 5.74453H3.16734L3.2352 5.52899ZM4.53043 5.52899L4.60025 5.74653H4.82977L4.64416 5.88024L4.71601 6.09778L4.5304 5.96407L4.34482 6.09776L4.41666 5.87824L4.23106 5.74453H4.45858L4.53043 5.52899ZM5.82365 5.52899L5.89549 5.74653H6.12299L5.93939 5.88024L6.00923 6.09778L5.82363 5.96407L5.64002 6.09776L5.70989 5.87824L5.52628 5.74453H5.75378L5.82365 5.52899ZM7.11885 5.52899L7.18869 5.74653H7.41822L7.23261 5.88024L7.30445 6.09778L7.11885 5.96407L6.93324 6.09776L7.00509 5.87824L6.8195 5.74453H7.049L7.11885 5.52899Z" fill="white"/>
</svg>
